<svg xmlns="http://www.w3.org/2000/svg" viewBox="0 0 200 200" width="200" height="200" role="img" aria-label="python-project-template">
  <defs>
    <!-- Marble warm white to cool grey -->
    <linearGradient id="g-marble" x1="0%" y1="0%" x2="100%" y2="100%">
      <stop offset="0%"   stop-color="#f0ece4"/>
      <stop offset="100%" stop-color="#c8c0b8"/>
    </linearGradient>
    <!-- Slightly darker for base/shadow faces -->
    <linearGradient id="g-stone" x1="0%" y1="0%" x2="100%" y2="100%">
      <stop offset="0%"   stop-color="#d6cfc6"/>
      <stop offset="100%" stop-color="#a89f96"/>
    </linearGradient>
    <!-- Deep warm shadow -->
    <linearGradient id="g-shadow" x1="0%" y1="0%" x2="100%" y2="100%">
      <stop offset="0%"   stop-color="#9c9189"/>
      <stop offset="100%" stop-color="#7a6f67"/>
    </linearGradient>
    <!-- Badge background: warm off-white parchment -->
    <linearGradient id="g-bg" x1="0%" y1="0%" x2="60%" y2="100%">
      <stop offset="0%"   stop-color="#faf7f2"/>
      <stop offset="100%" stop-color="#ede8e0"/>
    </linearGradient>
    <!-- Ring: warm taupe -->
    <linearGradient id="g-ring" x1="0%" y1="0%" x2="100%" y2="100%">
      <stop offset="0%"   stop-color="#b5a99e"/>
      <stop offset="100%" stop-color="#7a6f67"/>
    </linearGradient>
  </defs>

  <!-- Badge background — parchment -->
  <circle cx="100" cy="100" r="92" fill="url(#g-bg)"/>
  <circle cx="100" cy="100" r="92" fill="none" stroke="url(#g-ring)" stroke-width="2.5"/>

  <!-- Temple group — scaled to fit inside circle with margin -->
  <!-- Width: 136px (x 32..168), Height: ~138px (y 34..172) — all within r=92 circle -->

  <!-- Pediment -->
  <polygon points="100,34  168,62  32,62" fill="url(#g-marble)"/>
  <line x1="100" y1="34" x2="168" y2="62" stroke="url(#g-stone)" stroke-width="2" stroke-linecap="round"/>
  <line x1="100" y1="34" x2="32"  y2="62" stroke="url(#g-stone)" stroke-width="2" stroke-linecap="round"/>

  <!-- Entablature -->
  <rect x="32" y="62" width="136" height="11" rx="0" fill="url(#g-marble)"/>
  <rect x="32" y="71" width="136" height="2"  fill="url(#g-shadow)" opacity="0.25"/>

  <!-- 3 columns — centers at 59, 100, 141 — shaft 17px wide, gaps ~25px -->
  <rect x="50"  y="73" width="17" height="64" fill="url(#g-marble)"/>
  <rect x="91"  y="73" width="17" height="64" fill="url(#g-marble)"/>
  <rect x="133" y="73" width="17" height="64" fill="url(#g-marble)"/>

  <!-- Column right-edge shadows -->
  <rect x="64"  y="73" width="3" height="64" fill="url(#g-shadow)" opacity="0.22"/>
  <rect x="105" y="73" width="3" height="64" fill="url(#g-shadow)" opacity="0.22"/>
  <rect x="147" y="73" width="3" height="64" fill="url(#g-shadow)" opacity="0.22"/>

  <!-- Stylobate / base steps -->
  <rect x="32" y="137" width="136" height="10" fill="url(#g-marble)"/>
  <rect x="38" y="147" width="124" height="8"  fill="url(#g-stone)"/>
  <rect x="44" y="155" width="112" height="7"  fill="url(#g-shadow)" opacity="0.45"/>

</svg>
