<svg xmlns="http://www.w3.org/2000/svg" viewBox="0 0 1200 2400" role="img" aria-label="Temple8 Feature Development Workflow">
  <style>
    .bg { fill: #1a1a2e; }
    .po { fill: #2d6a4f; }
    .se { fill: #3a5a8c; }
    .sa { fill: #7b4f8a; }
    .idle { fill: #4a4a5a; }
    .subflow { fill: #8b6914; stroke: #d4a017; stroke-width: 2; stroke-dasharray: 6 3; }
    .postmortem { fill: #8b3a3a; }
    .text { fill: #ffffff; font-family: system-ui, -apple-system, sans-serif; font-size: 12px; }
    .text-sm { fill: #cccccc; font-family: system-ui, -apple-system, sans-serif; font-size: 10px; }
    .text-xs { fill: #999999; font-family: system-ui, -apple-system, sans-serif; font-size: 9px; }
    .gate { fill: none; stroke: #d4a017; stroke-width: 1.5; stroke-dasharray: 4 2; }
    .gate-text { fill: #d4a017; font-family: system-ui, -apple-system, sans-serif; font-size: 9px; }
    .arrow { fill: none; stroke: #888888; stroke-width: 1.5; marker-end: url(#arrowhead); }
    .arrow-fail { fill: none; stroke: #cc4444; stroke-width: 1.2; stroke-dasharray: 5 3; marker-end: url(#arrowhead-red); }
    .arrow-loop { fill: none; stroke: #66aa66; stroke-width: 1.2; stroke-dasharray: 5 3; marker-end: url(#arrowhead-green); }
    .arrow-exit { fill: none; stroke: #d4a017; stroke-width: 1.5; stroke-dasharray: 4 2; marker-end: url(#arrowhead-gold); }
    .title { fill: #ffffff; font-family: system-ui, -apple-system, sans-serif; font-size: 18px; font-weight: 700; }
    .subtitle { fill: #aaaaaa; font-family: system-ui, -apple-system, sans-serif; font-size: 11px; }
    .legend-label { fill: #cccccc; font-family: system-ui, -apple-system, sans-serif; font-size: 10px; }
    .section-header { fill: #d4a017; font-family: system-ui, -apple-system, sans-serif; font-size: 13px; font-weight: 600; }
    .subflow-box { fill: none; stroke: #7b4f8a; stroke-width: 1.5; stroke-dasharray: 4 2; }
    .po-subflow-box { fill: none; stroke: #2d6a4f; stroke-width: 1.5; stroke-dasharray: 4 2; }
    .se-subflow-box { fill: none; stroke: #3a5a8c; stroke-width: 1.5; stroke-dasharray: 4 2; }
    .exit-label { fill: #d4a017; font-family: system-ui, -apple-system, sans-serif; font-size: 9px; font-weight: 600; }
  </style>
  <defs>
    <marker id="arrowhead" markerWidth="8" markerHeight="6" refX="8" refY="3" orient="auto">
      <polygon points="0 0, 8 3, 0 6" fill="#888888"/>
    </marker>
    <marker id="arrowhead-red" markerWidth="8" markerHeight="6" refX="8" refY="3" orient="auto">
      <polygon points="0 0, 8 3, 0 6" fill="#cc4444"/>
    </marker>
    <marker id="arrowhead-green" markerWidth="8" markerHeight="6" refX="8" refY="3" orient="auto">
      <polygon points="0 0, 8 3, 0 6" fill="#66aa66"/>
    </marker>
    <marker id="arrowhead-gold" markerWidth="8" markerHeight="6" refX="8" refY="3" orient="auto">
      <polygon points="0 0, 8 3, 0 6" fill="#d4a017"/>
    </marker>
  </defs>

  <!-- Background -->
  <rect class="bg" width="1200" height="2400" rx="0"/>

  <!-- Title -->
  <text class="title" x="600" y="32" text-anchor="middle">Temple8 — Feature Development Workflow</text>
  <text class="subtitle" x="600" y="50" text-anchor="middle">feature-flow v3.1.0 + scope-cycle v1.2.0 + arch-cycle v1.1.0 + tdd-cycle v3.0.0</text>

  <!-- Legend -->
  <rect x="20" y="62" width="14" height="14" class="po" rx="3"/>
  <text class="legend-label" x="40" y="74">Product Owner</text>
  <rect x="140" y="62" width="14" height="14" class="se" rx="3"/>
  <text class="legend-label" x="160" y="74">Software Engineer</text>
  <rect x="290" y="62" width="14" height="14" class="sa" rx="3"/>
  <text class="legend-label" x="310" y="74">System Architect</text>
  <rect x="430" y="62" width="14" height="14" class="idle" rx="3"/>
  <text class="legend-label" x="450" y="74">Idle / Gate</text>
  <rect x="540" y="60" width="14" height="14" class="subflow" rx="3"/>
  <text class="legend-label" x="560" y="74">Subflow</text>
  <rect x="640" y="60" width="14" height="14" class="postmortem" rx="3"/>
  <text class="legend-label" x="660" y="74">Post-Mortem</text>
  <line x1="770" y1="69" x2="800" y2="69" class="gate"/>
  <text class="legend-label" x="806" y="73">Contract Gate</text>
  <line x1="830" y1="69" x2="860" y2="69" class="arrow-exit"/>
  <text class="legend-label" x="866" y="73">Exit</text>

  <!-- ============================================================ -->
  <!-- IDLE                                                         -->
  <!-- ============================================================ -->
  <rect x="450" y="90" width="300" height="40" class="idle" rx="8"/>
  <text class="text" x="600" y="115" text-anchor="middle">idle</text>
  <text class="text-xs" x="600" y="126" text-anchor="middle">product-owner</text>

  <!-- idle -> step-1-scope (prepare) -->
  <line x1="500" y1="130" x2="400" y2="165" class="arrow"/>
  <text class="text-xs" x="430" y="150">prepare</text>

  <!-- idle -> select-feature (build) -->
  <line x1="700" y1="130" x2="800" y2="165" class="arrow"/>
  <text class="text-xs" x="730" y="150">build</text>

  <!-- ============================================================ -->
  <!-- STEP 1 — SCOPE (subflow)                                     -->
  <!-- ============================================================ -->
  <text class="section-header" x="40" y="155">STEP 1 — SCOPE</text>

  <rect x="250" y="165" width="320" height="64" class="subflow" rx="8"/>
  <text class="text" x="410" y="190" text-anchor="middle">step-1-scope</text>
  <text class="text-sm" x="410" y="206" text-anchor="middle">scope-cycle: backlog-criteria → discovery → stories → criteria</text>
  <text class="text-xs" x="410" y="222" text-anchor="middle">product-owner</text>

  <!-- Scope Cycle detail -->
  <rect x="80" y="245" width="660" height="120" class="po-subflow-box" rx="6"/>
  <text class="text-sm" x="410" y="268" text-anchor="middle" fill="#2d6a4f">Scope Cycle (scope-cycle v1.2.0)</text>

  <rect x="110" y="282" width="130" height="36" class="po" rx="6"/>
  <text class="text-sm" x="175" y="304" text-anchor="middle">backlog-criteria</text>
  <rect x="265" y="282" width="100" height="36" class="po" rx="6"/>
  <text class="text-sm" x="315" y="304" text-anchor="middle">discovery</text>
  <rect x="390" y="282" width="80" height="36" class="po" rx="6"/>
  <text class="text-sm" x="430" y="304" text-anchor="middle">stories</text>
  <rect x="495" y="282" width="80" height="36" class="po" rx="6"/>
  <text class="text-sm" x="535" y="304" text-anchor="middle">criteria</text>

  <!-- Internal transitions -->
  <line x1="240" y1="300" x2="265" y2="300" class="arrow"/>
  <text class="text-xs" x="252" y="296" text-anchor="middle">criteria-done</text>
  <line x1="365" y1="300" x2="390" y2="300" class="arrow"/>
  <text class="text-xs" x="377" y="296" text-anchor="middle">baselined</text>
  <line x1="470" y1="300" x2="495" y2="300" class="arrow"/>
  <text class="text-xs" x="482" y="296" text-anchor="middle">committed</text>

  <!-- discovery self-loop -->
  <path d="M 315 318 L 315 345 L 245 345 L 245 300 L 265 300" class="arrow-loop"/>
  <text class="text-xs" x="235" y="345" text-anchor="end">more-discovery</text>

  <!-- Exit: criteria -> complete -->
  <line x1="535" y1="318" x2="535" y2="355" class="arrow-exit"/>
  <text class="exit-label" x="545" y="353">exit: complete</text>

  <!-- step-1-scope blocked -> idle -->
  <path d="M 250 197 L 80 197 L 80 110 L 450 110" class="arrow-fail"/>
  <text class="text-xs" x="75" y="155" text-anchor="end">blocked</text>

  <!-- ============================================================ -->
  <!-- STEP 2 — ARCHITECTURE                                        -->
  <!-- ============================================================ -->
  <text class="section-header" x="40" y="390">STEP 2 — ARCHITECTURE</text>

  <rect x="250" y="400" width="320" height="64" class="subflow" rx="8"/>
  <text class="text" x="410" y="425" text-anchor="middle">step-2-arch</text>
  <text class="text-sm" x="410" y="441" text-anchor="middle">arch-cycle: read → interview → validate → design → stubs</text>
  <text class="text-xs" x="410" y="457" text-anchor="middle">system-architect</text>

  <!-- step-1-scope complete -> step-2-arch -->
  <line x1="410" y1="229" x2="410" y2="400" class="arrow"/>
  <text class="text-xs" x="420" y="315">complete</text>

  <!-- step-2-arch blocked -> step-1-scope -->
  <path d="M 250 432 L 60 432 L 60 197 L 250 197" class="arrow-fail"/>
  <text class="text-xs" x="55" y="315" text-anchor="end">blocked</text>

  <!-- Arch Cycle detail -->
  <rect x="80" y="480" width="660" height="140" class="subflow-box" rx="6"/>
  <text class="text-sm" x="410" y="502" text-anchor="middle" fill="#7b4f8a">Arch Cycle (arch-cycle v1.1.0)</text>

  <rect x="110" y="514" width="80" height="44" class="sa" rx="6"/>
  <text class="text-sm" x="150" y="534" text-anchor="middle">read</text>
  <rect x="210" y="514" width="100" height="44" class="sa" rx="6"/>
  <text class="text-sm" x="260" y="534" text-anchor="middle">interview</text>
  <rect x="330" y="514" width="80" height="44" class="sa" rx="6"/>
  <text class="text-sm" x="370" y="534" text-anchor="middle">validate</text>
  <rect x="430" y="514" width="80" height="44" class="sa" rx="6"/>
  <text class="text-sm" x="470" y="534" text-anchor="middle">design</text>
  <rect x="530" y="514" width="80" height="44" class="sa" rx="6"/>
  <text class="text-sm" x="570" y="534" text-anchor="middle">stubs</text>

  <!-- Internal transitions -->
  <line x1="190" y1="536" x2="210" y2="536" class="arrow"/>
  <line x1="310" y1="536" x2="330" y2="536" class="arrow"/>
  <line x1="410" y1="536" x2="430" y2="536" class="arrow"/>
  <line x1="510" y1="536" x2="530" y2="536" class="arrow"/>

  <!-- Gates -->
  <rect x="212" y="570" width="96" height="24" class="gate" rx="4"/>
  <text class="gate-text" x="260" y="586" text-anchor="middle">adrs_drafted</text>
  <rect x="332" y="570" width="96" height="24" class="gate" rx="4"/>
  <text class="gate-text" x="380" y="586" text-anchor="middle">adrs_approved</text>
  <rect x="432" y="570" width="96" height="24" class="gate" rx="4"/>
  <text class="gate-text" x="480" y="586" text-anchor="middle">stubs_written</text>

  <!-- interview self-loop -->
  <path d="M 260 558 L 260 600 L 190 600 L 190 536 L 210 536" class="arrow-loop"/>
  <text class="text-xs" x="180" y="580" text-anchor="end">gaps-found</text>

  <!-- validate -> interview (rejected) -->
  <path d="M 370 558 L 370 615 L 190 615 L 190 558 L 210 558" class="arrow-loop"/>
  <text class="text-xs" x="180" y="595" text-anchor="end">rejected</text>

  <!-- Exits -->
  <line x1="150" y1="558" x2="150" y2="610" class="arrow-exit"/>
  <text class="exit-label" x="90" y="608">exit: blocked</text>
  <line x1="570" y1="558" x2="570" y2="610" class="arrow-exit"/>
  <text class="exit-label" x="520" y="608">exit: complete</text>

  <!-- ============================================================ -->
  <!-- RECONCILE AND READY                                            -->
  <!-- ============================================================ -->
  <text class="section-header" x="40" y="645">RECONCILE &amp; READY</text>

  <!-- step-2-arch complete -> reconcile -->
  <line x1="410" y1="464" x2="410" y2="665" class="arrow"/>
  <text class="text-xs" x="420" y="565">complete</text>

  <rect x="280" y="665" width="260" height="48" class="po" rx="8"/>
  <text class="text" x="410" y="687" text-anchor="middle">reconcile</text>
  <text class="text-xs" x="410" y="704" text-anchor="middle">Cross-check all docs for consistency</text>

  <!-- reconcile -> ready -->
  <line x1="410" y1="713" x2="410" y2="745" class="arrow"/>
  <text class="text-xs" x="420" y="730">reconciled</text>

  <!-- reconcile inconsistencies -> step-1-scope -->
  <path d="M 280 689 L 40 689 L 40 197 L 250 197" class="arrow-fail"/>
  <text class="text-xs" x="35" y="440" text-anchor="end">inconsistencies</text>

  <rect x="300" y="745" width="220" height="48" class="po" rx="8"/>
  <text class="text" x="410" y="767" text-anchor="middle">ready</text>
  <text class="text-xs" x="410" y="784" text-anchor="middle">Build or shelve decision</text>

  <!-- ready -> select-feature (build-now) -->
  <line x1="520" y1="769" x2="650" y2="769" class="arrow"/>
  <text class="text-xs" x="585" y="765">build-now</text>

  <!-- ready -> idle (shelve) -->
  <path d="M 300 769 L 200 769 L 200 110 L 450 110" class="arrow"/>
  <text class="text-xs" x="195" y="440" text-anchor="end">shelve</text>

  <!-- ============================================================ -->
  <!-- SELECT FEATURE                                               -->
  <!-- ============================================================ -->
  <rect x="650" y="165" width="260" height="48" class="po" rx="8"/>
  <text class="text" x="780" y="187" text-anchor="middle">select-feature</text>
  <text class="text-xs" x="780" y="204" text-anchor="middle">Pick next feature to develop</text>

  <!-- select-feature -> step-3a-working -->
  <line x1="780" y1="213" x2="780" y2="835" class="arrow"/>
  <text class="text-xs" x="790" y="525">feature-selected</text>

  <!-- ============================================================ -->
  <!-- STEP 3A — TDD FUNCTIONAL                                     -->
  <!-- ============================================================ -->
  <text class="section-header" x="40" y="820">STEP 3A — TDD FUNCTIONAL</text>

  <rect x="650" y="835" width="320" height="64" class="subflow" rx="8"/>
  <text class="text" x="810" y="860" text-anchor="middle">step-3a-working</text>
  <text class="text-sm" x="810" y="876" text-anchor="middle">tdd-cycle: setup → red → green → refactor</text>
  <text class="text-xs" x="810" y="892" text-anchor="middle">software-engineer</text>

  <!-- TDD Cycle detail -->
  <rect x="580" y="915" width="460" height="100" class="se-subflow-box" rx="6"/>
  <text class="text-sm" x="810" y="936" text-anchor="middle" fill="#3a5a8c">TDD Cycle (tdd-cycle v3.0.0)</text>

  <rect x="600" y="946" width="70" height="30" class="se" rx="6"/>
  <text class="text-sm" x="635" y="966" text-anchor="middle">setup</text>
  <rect x="690" y="946" width="60" height="30" class="se" rx="6"/>
  <text class="text-sm" x="720" y="966" text-anchor="middle">red</text>
  <rect x="770" y="946" width="70" height="30" class="se" rx="6"/>
  <text class="text-sm" x="805" y="966" text-anchor="middle">green</text>
  <rect x="860" y="946" width="80" height="30" class="se" rx="6"/>
  <text class="text-sm" x="900" y="966" text-anchor="middle">refactor</text>

  <!-- Internal transitions -->
  <line x1="670" y1="961" x2="690" y2="961" class="arrow"/>
  <line x1="750" y1="961" x2="770" y2="961" class="arrow"/>
  <line x1="840" y1="961" x2="860" y2="961" class="arrow"/>

  <!-- refactor -> red loop -->
  <path d="M 900 976 L 900 1000 L 720 1000 L 720 976" class="arrow-loop"/>
  <text class="text-xs" x="810" y="1012" text-anchor="middle">more-ids</text>

  <!-- Exits -->
  <line x1="720" y1="976" x2="720" y2="1000" class="arrow-exit"/>
  <text class="exit-label" x="650" y="1005">exit: blocked</text>
  <line x1="900" y1="976" x2="900" y2="1000" class="arrow-exit"/>
  <text class="exit-label" x="830" y="1005">exit: design-review-ready</text>

  <!-- step-3a-working blocked -> step-1-scope -->
  <path d="M 650 867 L 20 867 L 20 197 L 250 197" class="arrow-fail"/>
  <text class="text-xs" x="15" y="532" text-anchor="end">blocked</text>

  <!-- ============================================================ -->
  <!-- STEP 4 — DESIGN REVIEW                                      -->
  <!-- ============================================================ -->
  <text class="section-header" x="40" y="1040">STEP 4 — DESIGN REVIEW</text>

  <!-- step-3a-working -> step-4-ready -->
  <line x1="810" y1="899" x2="810" y2="1055" class="arrow"/>
  <text class="text-xs" x="820" y="977">design-review-ready</text>

  <rect x="680" y="1055" width="260" height="56" class="sa" rx="8"/>
  <text class="text" x="810" y="1077" text-anchor="middle">step-4-ready</text>
  <text class="text-xs" x="810" y="1095" text-anchor="middle">Adversarial design review</text>

  <rect x="950" y="1063" width="140" height="32" class="gate" rx="4"/>
  <text class="gate-text" x="1020" y="1077" text-anchor="middle">test-fast-green</text>
  <text class="gate-text" x="1020" y="1089" text-anchor="middle">feature-type-run</text>

  <!-- step-4-ready approved -> step-3b-working -->
  <line x1="810" y1="1111" x2="810" y2="1145" class="arrow"/>
  <text class="text-xs" x="820" y="1130">design-approved</text>

  <!-- step-4-ready rejected -> step-3a-working -->
  <path d="M 680 1083 L 580 1083 L 580 867 L 650 867" class="arrow-fail"/>
  <text class="text-xs" x="575" y="975" text-anchor="end">design-rejected</text>

  <!-- ============================================================ -->
  <!-- STEP 3B — COMPLETION                                        -->
  <!-- ============================================================ -->
  <text class="section-header" x="40" y="1130">STEP 3B — COMPLETION</text>

  <rect x="680" y="1145" width="260" height="56" class="se" rx="8"/>
  <text class="text" x="810" y="1167" text-anchor="middle">step-3b-working</text>
  <text class="text-xs" x="810" y="1185" text-anchor="middle">Coverage + lint + types + docstrings</text>

  <rect x="950" y="1153" width="140" height="32" class="gate" rx="4"/>
  <text class="gate-text" x="1020" y="1167" text-anchor="middle">lint-clean</text>
  <text class="gate-text" x="1020" y="1179" text-anchor="middle">static-check-clean</text>

  <!-- step-3b-working -> step-4b-ready -->
  <line x1="810" y1="1201" x2="810" y2="1235" class="arrow"/>
  <text class="text-xs" x="820" y="1220">completion-ready</text>

  <!-- step-3b-working blocked -> step-1-scope -->
  <path d="M 680 1173 L 1 1173 L 1 197 L 250 197" class="arrow-fail"/>
  <text class="text-xs" x="1" y="685" text-anchor="start">blocked</text>

  <!-- ============================================================ -->
  <!-- STEP 4B — COMPLETION REVIEW                                 -->
  <!-- ============================================================ -->
  <text class="section-header" x="40" y="1220">STEP 4B — COMPLETION REVIEW</text>

  <rect x="680" y="1235" width="260" height="56" class="sa" rx="8"/>
  <text class="text" x="810" y="1257" text-anchor="middle">step-4b-ready</text>
  <text class="text-xs" x="810" y="1275" text-anchor="middle">Final verification</text>

  <rect x="950" y="1243" width="140" height="32" class="gate" rx="4"/>
  <text class="gate-text" x="1020" y="1257" text-anchor="middle">test-coverage</text>
  <text class="gate-text" x="1020" y="1269" text-anchor="middle">all gates pass</text>

  <!-- step-4b-ready approved -> step-5-ready -->
  <line x1="810" y1="1291" x2="810" y2="1325" class="arrow"/>
  <text class="text-xs" x="820" y="1310">approved</text>

  <!-- step-4b-ready rejected -> step-3b-working -->
  <path d="M 680 1263 L 600 1263 L 600 1173 L 680 1173" class="arrow-fail"/>
  <text class="text-xs" x="595" y="1218" text-anchor="end">rejected</text>

  <!-- ============================================================ -->
  <!-- STEP 5 — ACCEPT AND RELEASE                                   -->
  <!-- ============================================================ -->
  <text class="section-header" x="40" y="1310">STEP 5 — ACCEPT &amp; RELEASE</text>

  <rect x="680" y="1325" width="260" height="48" class="po" rx="8"/>
  <text class="text" x="810" y="1347" text-anchor="middle">step-5-ready</text>
  <text class="text-xs" x="810" y="1364" text-anchor="middle">Demo &amp; validate</text>

  <!-- step-5-ready accepted -> step-5-merge -->
  <line x1="810" y1="1373" x2="810" y2="1405" class="arrow"/>
  <text class="text-xs" x="820" y="1390">accepted</text>

  <!-- step-5-ready failed -> post-mortem -->
  <path d="M 680 1349 L 480 1349 L 480 1785 L 680 1785" class="arrow-fail"/>
  <text class="text-xs" x="475" y="1567" text-anchor="end">failed</text>

  <rect x="680" y="1405" width="260" height="48" class="se" rx="8"/>
  <text class="text" x="810" y="1427" text-anchor="middle">step-5-merge</text>
  <text class="text-xs" x="810" y="1444" text-anchor="middle">Merge to main with --no-ff</text>

  <!-- step-5-merge -> step-5-update-docs -->
  <line x1="810" y1="1453" x2="810" y2="1485" class="arrow"/>
  <text class="text-xs" x="820" y="1470">merged</text>

  <rect x="680" y="1485" width="260" height="48" class="sa" rx="8"/>
  <text class="text" x="810" y="1507" text-anchor="middle">step-5-update-docs</text>
  <text class="text-xs" x="810" y="1524" text-anchor="middle">Update architecture docs</text>

  <!-- step-5-update-docs -> step-5-pr -->
  <line x1="810" y1="1533" x2="810" y2="1565" class="arrow"/>
  <text class="text-xs" x="820" y="1550">docs-updated</text>

  <rect x="680" y="1565" width="260" height="48" class="sa" rx="8"/>
  <text class="text" x="810" y="1587" text-anchor="middle">step-5-pr</text>
  <text class="text-xs" x="810" y="1604" text-anchor="middle">Create pull request</text>

  <!-- step-5-pr -> step-5-complete -->
  <line x1="810" y1="1613" x2="810" y2="1645" class="arrow"/>
  <text class="text-xs" x="820" y="1630">pr-created</text>

  <rect x="680" y="1645" width="260" height="48" class="po" rx="8"/>
  <text class="text" x="810" y="1667" text-anchor="middle">step-5-complete</text>
  <text class="text-xs" x="810" y="1684" text-anchor="middle">Archive feature</text>

  <!-- step-5-complete -> idle -->
  <path d="M 810 1693 L 810 1720 L 1150 1720 L 1150 110 L 750 110" class="arrow"/>
  <text class="text-xs" x="1160" y="915">feature-archived</text>

  <!-- ============================================================ -->
  <!-- POST-MORTEM                                                  -->
  <!-- ============================================================ -->
  <text class="section-header" x="40" y="1770">POST-MORTEM</text>

  <rect x="680" y="1785" width="260" height="56" class="postmortem" rx="8"/>
  <text class="text" x="810" y="1807" text-anchor="middle">post-mortem</text>
  <text class="text-xs" x="810" y="1823" text-anchor="middle">Write post-mortem</text>
  <text class="text-xs" x="810" y="1835" text-anchor="middle">Create fix branch</text>

  <!-- post-mortem restart -> reconcile -->
  <path d="M 940 1813 L 1100 1813 L 1100 689 L 540 689" class="arrow-loop"/>
  <text class="text-xs" x="1105" y="1251">restart</text>

</svg>